<svg width="33" height="32" viewBox="0 0 33 32" fill="none" xmlns="http://www.w3.org/2000/svg">
<g clip-path="url(#clip0_522_9289)">
<path d="M26.9863 7.18528C27.5494 7.33072 28.064 7.62276 28.4776 8.03169C28.8912 8.44061 29.1891 8.95182 29.341 9.51328C29.729 11.6439 29.9143 13.8066 29.897 15.9706C29.9106 18.1139 29.7245 20.2538 29.341 22.3626C29.1994 22.9362 28.9061 23.4611 28.4918 23.8822C28.0775 24.3033 27.5575 24.6051 26.9863 24.7559C23.529 25.1799 20.0476 25.3693 16.565 25.3279C13.0823 25.3705 9.60071 25.1794 6.14363 24.7559C5.58048 24.6105 5.06591 24.3185 4.6523 23.9095C4.23869 23.5006 3.9408 22.9894 3.78896 22.4279C3.40144 20.2977 3.21529 18.1357 3.23296 15.9706C3.21923 13.8277 3.40537 11.6883 3.78896 9.57995C3.93026 9.00614 4.22348 8.48098 4.63781 8.05961C5.05213 7.63824 5.57228 7.33623 6.14363 7.18528C9.60229 6.78528 13.0836 6.61595 16.565 6.67995C20.0461 6.61526 23.5277 6.78408 26.9863 7.18528ZM13.8316 12.0613V19.8799L20.809 15.9706L13.8316 12.0613Z" fill="white"/>
</g>
<defs>
<clipPath id="clip0_522_9289">
<rect width="32" height="32" fill="white" transform="translate(0.564941)"/>
</clipPath>
</defs>
</svg>
