<svg width="265" height="254" viewBox="0 0 265 254" fill="none" xmlns="http://www.w3.org/2000/svg">
<mask id="mask0_522_774" style="mask-type:alpha" maskUnits="userSpaceOnUse" x="0" y="0" width="265" height="254">
<path d="M265 0H0V254H265V0Z" fill="#D9D9D9"/>
</mask>
<g mask="url(#mask0_522_774)">
<path opacity="0.5" d="M144 0H143V258H144V0Z" fill="#1A4480"/>
<path opacity="0.5" d="M11 0H10V258H11V0Z" fill="#1A4480"/>
<path opacity="0.5" d="M154 0H153V258H154V0Z" fill="#1A4480"/>
<path opacity="0.5" d="M21 0H20V258H21V0Z" fill="#1A4480"/>
<path opacity="0.5" d="M164 0H163V258H164V0Z" fill="#1A4480"/>
<path opacity="0.5" d="M31 0H30V258H31V0Z" fill="#1A4480"/>
<path opacity="0.5" d="M174 0H173V258H174V0Z" fill="#1A4480"/>
<path opacity="0.5" d="M41 0H40V258H41V0Z" fill="#1A4480"/>
<path opacity="0.5" d="M184 0H183V258H184V0Z" fill="#1A4480"/>
<path opacity="0.5" d="M51 0H50V258H51V0Z" fill="#1A4480"/>
<path opacity="0.5" d="M194 0H193V258H194V0Z" fill="#1A4480"/>
<path opacity="0.5" d="M61 0H60V258H61V0Z" fill="#1A4480"/>
<path opacity="0.5" d="M204 0H203V258H204V0Z" fill="#1A4480"/>
<path opacity="0.5" d="M71 0H70V258H71V0Z" fill="#1A4480"/>
<path opacity="0.5" d="M214 0H213V258H214V0Z" fill="#1A4480"/>
<path opacity="0.5" d="M81 0H80V258H81V0Z" fill="#1A4480"/>
<path opacity="0.5" d="M224 0H223V258H224V0Z" fill="#1A4480"/>
<path opacity="0.5" d="M91 0H90V258H91V0Z" fill="#1A4480"/>
<path opacity="0.5" d="M234 0H233V258H234V0Z" fill="#1A4480"/>
<path opacity="0.5" d="M101 0H100V258H101V0Z" fill="#1A4480"/>
<path opacity="0.5" d="M244 0H243V258H244V0Z" fill="#1A4480"/>
<path opacity="0.5" d="M111 0H110V258H111V0Z" fill="#1A4480"/>
<path opacity="0.5" d="M254 0H253V258H254V0Z" fill="#1A4480"/>
<path opacity="0.5" d="M121 0H120V258H121V0Z" fill="#1A4480"/>
<g opacity="0.5">
<path d="M-1 121L-1 122L265 122V121L-1 121Z" fill="#1A4480"/>
<path d="M-1 111L-1 112L265 112V111L-1 111Z" fill="#1A4480"/>
<path d="M-1 101L-1 102L265 102V101L-1 101Z" fill="#1A4480"/>
<path d="M-1 91L-1 92L265 92V91L-1 91Z" fill="#1A4480"/>
<path d="M-1 81L-1 82L265 82V81L-1 81Z" fill="#1A4480"/>
<path d="M-1 70L-1 71L265 71V70L-1 70Z" fill="#1A4480"/>
<path d="M-1 60L-1 61L265 61V60L-1 60Z" fill="#1A4480"/>
<path d="M-1 50L-1 51L265 51V50L-1 50Z" fill="#1A4480"/>
<path d="M-1 40L-1 41L265 41V40L-1 40Z" fill="#1A4480"/>
<path d="M-1 30L-1 31L265 31V30L-1 30Z" fill="#1A4480"/>
<path d="M-1 20L-1 21L265 21V20L-1 20Z" fill="#1A4480"/>
<path d="M-1 10L-1 11L265 11V10L-1 10Z" fill="#1A4480"/>
</g>
<g opacity="0.5">
<path d="M-1 244L-1 245L265 245V244L-1 244Z" fill="#1A4480"/>
<path d="M-1 234L-1 235L265 235V234L-1 234Z" fill="#1A4480"/>
<path d="M-1 224L-1 225L265 225V224L-1 224Z" fill="#1A4480"/>
<path d="M-1 214L-1 215L265 215V214L-1 214Z" fill="#1A4480"/>
<path d="M-1 204L-1 205L265 205V204L-1 204Z" fill="#1A4480"/>
<path d="M-1 193L-1 194L265 194V193L-1 193Z" fill="#1A4480"/>
<path d="M-1 183L-1 184L265 184V183L-1 183Z" fill="#1A4480"/>
<path d="M-1 173L-1 174L265 174V173L-1 173Z" fill="#1A4480"/>
<path d="M-1 163L-1 164L265 164V163L-1 163Z" fill="#1A4480"/>
<path d="M-1 153L-1 154L265 154V153L-1 153Z" fill="#1A4480"/>
<path d="M-1 143L-1 144L265 144V143L-1 143Z" fill="#1A4480"/>
</g>
<path d="M132 0H131V258H132V0Z" fill="#1A4480"/>
<path d="M-1 132L-1 133L265 133V132L-1 132Z" fill="#1A4480"/>
<path d="M-1 0L-1 1L265 1V0L-1 0Z" fill="#1A4480"/>
<path d="M264 0H265V258H264V0Z" fill="#1A4480"/>
</g>
</svg>
