<?xml version="1.0" encoding="iso-8859-1"?>
<!-- Generator: Adobe Illustrator 27.2.0, SVG Export Plug-In . SVG Version: 6.00 Build 0)  -->
<svg version="1.1" id="Capa_1" xmlns="http://www.w3.org/2000/svg" xmlns:xlink="http://www.w3.org/1999/xlink" x="0px" y="0px"
	 viewBox="0 0 514 514" style="enable-background:new 0 0 514 514;" xml:space="preserve">
<g>
	<g>
		<g id="XMLID_00000164511845174787116360000003396402062197202592_">
			<path style="fill:#33CCCC;" d="M149.73,473.837c-6.075,0-11-4.925-11-11V227.49l-31.086,14.482
				c-5.507,2.566-12.05,0.181-14.616-5.326c-2.565-5.507-0.181-12.051,5.326-14.616l46.73-21.77
				c3.406-1.587,7.388-1.325,10.557,0.695c3.169,2.02,5.088,5.518,5.088,9.276v252.607
				C160.73,468.912,155.806,473.837,149.73,473.837z"/>
		</g>
		<g id="XMLID_00000165217475468408255460000008333410254048315802_">
			<path style="fill:#33CCCC;" d="M99.533,200.177c-4.157,0-8.135-2.368-9.993-6.389c-2.548-5.515-0.143-12.051,5.373-14.599
				L333.387,69.014c5.513-2.547,12.051-0.143,14.599,5.372c2.548,5.515,0.143,12.051-5.372,14.599L104.14,199.16
				C102.646,199.85,101.077,200.177,99.533,200.177z"/>
		</g>
		<g id="XMLID_00000163784203307241011090000017375317344106449551_">
			<path style="fill:#33CCCC;" d="M340.505,388.724c-1.263,0-2.546-0.219-3.8-0.681l-150.612-55.456
				c-4.325-1.592-7.199-5.713-7.199-10.322v-130.58c0-4.29,2.494-8.188,6.389-9.987l150.612-69.543
				c5.516-2.547,12.051-0.14,14.598,5.375c2.547,5.516,0.14,12.051-5.376,14.598l-144.223,66.593v115.872l143.413,52.805
				c5.701,2.099,8.621,8.422,6.522,14.123C349.191,385.969,344.982,388.724,340.505,388.724z"/>
		</g>
		<g id="XMLID_00000025416241073167211060000014698769736743647655_">
			<path style="fill:#33CCCC;" d="M189.894,471c-6.075,0-11-4.925-11-11v-94.931c0-3.596,1.757-6.965,4.707-9.022
				c2.949-2.057,6.717-2.541,10.092-1.301c19.715,7.256,44.313,16.322,69.692,25.675c27.267,10.049,55.434,20.431,79.414,29.255
				c5.701,2.098,8.622,8.421,6.524,14.122c-2.099,5.702-8.422,8.62-14.122,6.524c-23.982-8.826-52.153-19.208-79.423-29.259
				c-19.355-7.133-38.257-14.1-54.884-20.223V460C200.894,466.075,195.969,471,189.894,471z"/>
		</g>
		<g id="XMLID_448_">
			<path d="M380.669,281.869c-23.909,0-43.361-19.452-43.361-43.361s19.452-43.361,43.361-43.361
				c23.909,0,43.361,19.452,43.361,43.361S404.579,281.869,380.669,281.869z M380.669,217.148c-11.778,0-21.361,9.582-21.361,21.361
				c0,11.778,9.583,21.361,21.361,21.361c11.778,0,21.361-9.582,21.361-21.361C402.03,226.73,392.448,217.148,380.669,217.148z"/>
		</g>
		<path d="M391.669,154.277V41.123C391.669,18.448,373.222,0,350.547,0H89.486C66.811,0,48.363,18.448,48.363,41.123v431.755
			c0,22.675,18.447,41.123,41.123,41.123h261.061c22.675,0,41.122-18.448,41.122-41.123V352.506l21.223-35.372
			c31.714-12.999,52.745-44.094,52.745-78.626C465.637,195.387,433.34,159.691,391.669,154.277z M350.547,492H89.486
			c-10.544,0-19.123-8.578-19.123-19.123V41.123C70.363,30.578,78.941,22,89.486,22h261.061c10.544,0,19.122,8.578,19.122,19.123
			v113.154c-6.292,0.818-12.378,2.301-18.164,4.421V71.245c0-17.139-13.943-31.082-31.082-31.082h-30.122
			c-12.696,0-20.148,7.781-25.59,13.462c-4.506,4.704-6.631,6.62-9.552,6.62h-70.286c-3.003,0-5.024-1.821-9.625-6.64
			c-5.414-5.673-12.83-13.442-25.518-13.442h-30.122c-17.139,0-31.082,13.943-31.082,31.082v371.51
			c0,17.139,13.943,31.082,31.082,31.082h200.816c17.138,0,31.082-13.943,31.082-31.082V322.233l18.164,30.273v120.372
			C369.669,483.422,361.091,492,350.547,492z M329.506,170.725c-20.518,15.525-33.804,40.129-33.804,67.783
			c0,27.076,12.933,52.036,33.804,67.819v136.427c0,5.008-4.074,9.082-9.082,9.082H119.608c-5.008,0-9.082-4.074-9.082-9.082V71.245
			c0-5.008,4.074-9.082,9.082-9.082h30.122c2.992,0,5.01,1.819,9.605,6.632c5.418,5.676,12.838,13.45,25.538,13.45h70.286
			c12.603,0,20.022-7.747,25.44-13.403c4.546-4.746,6.696-6.679,9.702-6.679h30.122c5.007,0,9.082,4.074,9.082,9.082V170.725z
			 M401.733,297.854c-2.406,0.854-4.439,2.518-5.753,4.707l-15.311,25.518l-15.311-25.518c-1.313-2.189-3.347-3.853-5.753-4.707
			c-25.064-8.896-41.904-32.746-41.904-59.346c0-34.705,28.223-62.942,62.922-62.966c0.015,0,0.03,0.002,0.045,0.002
			s0.03-0.002,0.045-0.002c34.699,0.025,62.922,28.261,62.922,62.966C443.637,265.108,426.797,288.957,401.733,297.854z"/>
	</g>
</g>
<g>
</g>
<g>
</g>
<g>
</g>
<g>
</g>
<g>
</g>
<g>
</g>
<g>
</g>
<g>
</g>
<g>
</g>
<g>
</g>
<g>
</g>
<g>
</g>
<g>
</g>
<g>
</g>
<g>
</g>
</svg>
