<?xml version="1.0" encoding="iso-8859-1"?>
<!-- Generator: Adobe Illustrator 27.2.0, SVG Export Plug-In . SVG Version: 6.00 Build 0)  -->
<svg version="1.1" id="Capa_1" xmlns="http://www.w3.org/2000/svg" xmlns:xlink="http://www.w3.org/1999/xlink" x="0px" y="0px"
	 viewBox="0 0 512.014 512.014" style="enable-background:new 0 0 512.014 512.014;" xml:space="preserve">
<g>
	<path d="M484.805,116.433l-224.61-98.351c-2.812-1.231-6.011-1.231-8.825,0L26.769,116.433c-4.19,1.835-6.808,6.072-6.573,10.641
		c0.037,0.718,0.151,1.418,0.32,2.098v91.735c-11.953,4.412-20.51,16.02-20.51,29.61c0,17.375,13.985,31.51,31.174,31.51
		c17.189,0,31.174-14.135,31.174-31.51c0-13.333-8.239-24.75-19.838-29.344v-79.482l82.686,26.486c0,0,0,89.262,0,89.349
		c0,3.434,1.717,6.824,4.479,8.858c1.866,1.374,46.612,33.64,126.111,33.64c79.499,0,124.237-32.267,126.103-33.641
		c2.76-2.033,4.478-5.427,4.478-8.858v-89.35l97.375-31.191c4.357-1.395,7.395-5.342,7.63-9.911
		C491.613,122.506,488.996,118.268,484.805,116.433z M31.181,260.027c-5.059,0-9.174-4.266-9.174-9.51
		c0-5.244,4.116-9.51,9.174-9.51s9.174,4.266,9.174,9.51C40.355,255.761,36.24,260.027,31.181,260.027z M364.373,238.505
		c-20.11-9.913-57.045-23.477-108.59-23.477c-51.54,0-88.472,13.562-108.581,23.476v-81.533
		c12.462-7.391,50.35-26.522,108.581-26.522c58.231,0,96.126,19.131,108.59,26.523V238.505z M158.567,257.526
		c18.148-8.648,51.377-20.499,97.216-20.499c45.847,0,79.085,11.855,97.226,20.498c-18.148,8.648-51.378,20.499-97.216,20.499
		C209.946,278.025,176.708,266.17,158.567,257.526z M384.926,145.539c-0.753-1.328-1.768-2.51-3.03-3.44
		c-1.866-1.374-46.614-33.65-126.113-33.65c-79.5,0-124.238,32.277-126.104,33.651c-1.262,0.93-2.277,2.112-3.03,3.439
		l-64.396-20.627l193.529-84.745l193.538,84.745L384.926,145.539z"/>
	<g>
		<path style="fill:red" d="M504.662,379.569c-0.413-4.622-3.818-8.423-8.307-9.598l-166.851-43.649
			c-12.869-3.395-26.33-2.908-38.925,1.402c-14.548,4.97-26.546,14.583-34.575,26.844c-8.026-12.261-20.02-21.873-34.561-26.841
			c-12.597-4.314-26.059-4.8-38.915-1.41L15.503,370.055c-4.489,1.175-7.892,4.977-8.305,9.599c-0.411,4.6,1.962,8.9,6.136,10.865
			c1.521,0.837,20.065,11.719,20.065,43.921c0,6.075,4.925,11,11,11s11-4.925,11-11c0-22.755-7.229-38.222-14.844-48.203
			l147.564-38.642c8.663-2.284,17.721-1.956,26.203,0.948c18.35,6.269,30.679,23.511,30.679,42.905v51.73c0,6.075,4.925,11,11,11
			c6.075,0,11-4.925,11-11v-51.73c0-19.392,12.333-36.634,30.695-42.907c8.481-2.902,17.541-3.23,26.219-0.941l147.387,38.558
			c-7.612,9.981-14.841,25.449-14.841,48.199c0,6.075,4.925,11,11,11s11-4.925,11-11c0-32.202,18.544-43.083,20.065-43.92
			C502.701,388.47,505.074,384.17,504.662,379.569z"/>
		<g>
			<path d="M274.125,494.856h-36.235c-15.958,0-31.139-5.059-43.903-14.629c-9.463-7.096-17.133-16.496-22.235-27.102
				L36.159,489.851c-0.058,0.015-0.115,0.03-0.173,0.045c-14.581,3.697-29.447-5.159-33.143-19.738l-1.996-7.874
				c-1.791-7.062-0.723-14.4,3.005-20.66c3.713-6.234,9.622-10.656,16.646-12.461l160.738-43.265
				c0.052-0.014,0.105-0.028,0.158-0.041c10.9-2.76,22.296-0.38,31.266,6.532c9.169,7.067,14.491,17.738,14.601,29.278
				c0.053,5.6,5.251,10.512,11.124,10.512h35.244c2.869,0,5.739-1.185,7.872-3.251c2.099-2.032,3.254-4.645,3.253-7.358
				c-0.006-11.321,5.203-21.873,14.292-28.951c9.088-7.077,20.598-9.541,31.574-6.762c0.053,0.014,0.106,0.027,0.159,0.042
				l160.738,43.264c7.024,1.805,12.933,6.227,16.646,12.461c3.728,6.26,4.795,13.597,3.005,20.66l-1.996,7.874
				c-3.696,14.58-18.565,23.431-33.143,19.738c-0.058-0.015-0.115-0.03-0.173-0.045l-135.593-36.727
				c-5.103,10.607-12.772,20.007-22.235,27.102C305.263,489.797,290.082,494.856,274.125,494.856z M178.359,428.937
				c4.708,0,9.046,3.044,10.503,7.75c6.59,21.295,26.751,36.168,49.028,36.168h36.235c22.277,0,42.438-14.873,49.028-36.168
				c1.751-5.659,7.668-8.912,13.384-7.366l144.959,39.264c2.798,0.674,5.64-1.034,6.35-3.834l1.996-7.873
				c0.467-1.844-0.164-3.295-0.582-3.997c-0.417-0.701-1.393-1.948-3.237-2.414c-0.052-0.014-0.105-0.027-0.156-0.041
				l-160.719-43.259c-4.328-1.071-8.911-0.05-12.585,2.81c-3.694,2.877-5.812,7.099-5.809,11.582
				c0.005,8.728-3.528,16.958-9.949,23.175c-6.291,6.091-14.521,9.446-23.176,9.446h-35.244c-18.095,0-32.954-14.492-33.123-32.304
				c-0.045-4.746-2.243-9.142-6.031-12.061c-2.1-1.618-6.494-4.108-12.367-2.647L26.148,450.426
				c-0.052,0.014-0.104,0.027-0.156,0.041c-1.844,0.467-2.82,1.713-3.237,2.414c-0.417,0.702-1.049,2.153-0.582,3.997l1.996,7.874
				c0.71,2.8,3.55,4.511,6.35,3.833l144.959-39.264C176.439,429.061,177.407,428.937,178.359,428.937z"/>
		</g>
	</g>
</g>
<g>
</g>
<g>
</g>
<g>
</g>
<g>
</g>
<g>
</g>
<g>
</g>
<g>
</g>
<g>
</g>
<g>
</g>
<g>
</g>
<g>
</g>
<g>
</g>
<g>
</g>
<g>
</g>
<g>
</g>
</svg>
